<svg xmlns="http://www.w3.org/2000/svg" fill="#000" viewBox="0 0 18 18">
<path xmlns="http://www.w3.org/2000/svg" d="M13.5 7.0045166h-.75V4.80952381C12.75 2.70666667 11.07 1 9 1 6.93 1 5.25 2.70666667 5.25 4.80952381V7.0045166H4.5c-.825 0-1.5.75406785-1.5 1.59216309v6.87951081C3 16.3142857 3.675 17 4.5 17h9c.825 0 1.5-.6857143 1.5-1.5238095V8.59667969c0-.83809524-.675-1.59216309-1.5-1.59216309zM6.75 4.80952381C6.75 3.5447619 7.755 2.52380952 9 2.52380952s2.25 1.02095238 2.25 2.28571429v2.18455578h-4.5V4.80952381zM13.0142212 15.013916H5.00195312V9h8.01226808v6.013916zM9 13c.55 0 1-.45 1-1s-.45-1-1-1-1 .45-1 1 .45 1 1 1z" fill="#000" fill-rule="nonzero"/>
</svg>